<svg id="Bold" enable-background="new 0 0 24 24" height="512" viewBox="0 0 24 24" width="512" xmlns="http://www.w3.org/2000/svg"><path d="m22.25 0h-20.5c-.965 0-1.75.785-1.75 1.75v2.5c0 .965.785 1.75 1.75 1.75h20.5c.965 0 1.75-.785 1.75-1.75v-2.5c0-.965-.785-1.75-1.75-1.75z"/><path d="m22.25 9h-7.5c-.96 0-1.75.79-1.75 1.75v10c0 .96.79 1.75 1.75 1.75h7.5c.96 0 1.75-.79 1.75-1.75v-10c0-.96-.79-1.75-1.75-1.75zm-7.75 1.75c0-.14.11-.25.25-.25h7.5c.14 0 .25.11.25.25v4.62l-.15-.18c-.67-.8-2.03-.8-2.7 0l-1.02 1.24c-.07.07-.15.09-.19.09s-.12-.01-.18-.07l-.52-.52c-.68-.68-1.8-.68-2.48 0l-.76.76z"/><path d="m.75 10.5h9.5c.414 0 .75-.336.75-.75s-.336-.75-.75-.75h-9.5c-.414 0-.75.336-.75.75s.336.75.75.75z"/><path d="m.75 13.5h9.5c.414 0 .75-.336.75-.75s-.336-.75-.75-.75h-9.5c-.414 0-.75.336-.75.75s.336.75.75.75z"/><path d="m.75 16.5h9.5c.414 0 .75-.336.75-.75s-.336-.75-.75-.75h-9.5c-.414 0-.75.336-.75.75s.336.75.75.75z"/><path d="m.75 19.5h9.5c.414 0 .75-.336.75-.75s-.336-.75-.75-.75h-9.5c-.414 0-.75.336-.75.75s.336.75.75.75z"/><path d="m.75 22.5h9.5c.414 0 .75-.336.75-.75s-.336-.75-.75-.75h-9.5c-.414 0-.75.336-.75.75s.336.75.75.75z"/></svg>