<svg id="Capa_1" enable-background="new 0 0 512 512" height="512" viewBox="0 0 512 512" width="512" xmlns="http://www.w3.org/2000/svg"><g><g><path d="m388.342 310.424 77.403-77.403-63.643-63.642-13.76 13.76v-182.37h-388.342v396.166h174.547l-50.655 50.655 63.642 63.642 114.297-114.297h86.511zm34.976-77.403-44.303 44.303-21.216-21.216 44.303-44.303zm-162.332 77.475h-142.999l121.905-88.996 56.065 54.025zm40.356-71.443-58.783-56.645-57.208 41.764-56.261-53.631-42.09 26.324v-109.096h214.342zm-214.342-6.805 38.25-23.922 35.479 33.822-73.729 53.825zm-57 134.687v-336.166h328.342v182.371l-27 26.999v-182.37h-274.342v282.728h173.986l-26.439 26.438zm136.318 80.655 170.268-170.268 21.216 21.216-170.268 170.268zm165.513-80.655 26.511-26.511v26.511z"/></g><g><path d="m452 56.39h30v30h-30z"/><path d="m452 116.39h30v30h-30z"/><path d="m482 86.39h30v30h-30z"/><path d="m422 86.39h30v30h-30z"/></g></g></svg>