<?xml version="1.0" encoding="iso-8859-1"?>
<!-- Generator: Adobe Illustrator 17.1.0, SVG Export Plug-In . SVG Version: 6.00 Build 0)  -->
<!DOCTYPE svg PUBLIC "-//W3C//DTD SVG 1.1//EN" "http://www.w3.org/Graphics/SVG/1.1/DTD/svg11.dtd">
<svg version="1.1" id="Capa_1" xmlns="http://www.w3.org/2000/svg" xmlns:xlink="http://www.w3.org/1999/xlink" x="0px" y="0px"
	 viewBox="0 0 326.598 326.598" style="enable-background:new 0 0 326.598 326.598;" xml:space="preserve">
<path d="M284.674,149.17c14.292-10.777,22.721-27.544,22.721-45.574c0-31.483-25.613-57.096-57.097-57.096
	c-16.738,0-32.239,7.128-43.101,19.671c-9.181-3.408-18.862-5.775-28.899-6.966V40.924c10.604-0.773,19-9.627,19-20.424
	c0-11.304-9.196-20.5-20.5-20.5h-27c-11.304,0-20.5,9.196-20.5,20.5c0,10.797,8.396,19.651,19,20.424v18.281
	c-10.037,1.191-19.718,3.558-28.898,6.966C108.539,53.628,93.037,46.5,76.299,46.5c-31.483,0-57.097,25.613-57.097,57.096
	c0,18.03,8.429,34.796,22.721,45.573c-3.326,11.308-5.119,23.266-5.119,35.636c0,33.472,13.074,63.945,34.377,86.594l-25.324,25.324
	c-6.834,6.834-6.834,17.915,0,24.749c3.417,3.417,7.896,5.125,12.375,5.125s8.957-1.708,12.375-5.125l28.006-28.006
	c18.94,11.318,41.065,17.833,64.687,17.833c23.622,0,45.748-6.515,64.688-17.833l28.006,28.006
	c3.417,3.417,7.896,5.125,12.374,5.125s8.957-1.708,12.374-5.125c6.835-6.834,6.835-17.915,0-24.749l-25.324-25.324
	c21.303-22.648,34.377-53.121,34.377-86.594C289.793,172.435,288,160.478,284.674,149.17z M214.556,201.056h-49.257
	c-9.374,0-17-7.626-17-17v-63.188c0-8.284,6.716-15,15-15s15,6.716,15,15v50.188h36.257c8.284,0,15,6.716,15,15
	S222.84,201.056,214.556,201.056z"/>
<g>
</g>
<g>
</g>
<g>
</g>
<g>
</g>
<g>
</g>
<g>
</g>
<g>
</g>
<g>
</g>
<g>
</g>
<g>
</g>
<g>
</g>
<g>
</g>
<g>
</g>
<g>
</g>
<g>
</g>
</svg>
